<?xml version="1.0" standalone="no"?>
<!DOCTYPE svg PUBLIC "-//W3C//DTD SVG 20010904//EN"
 "http://www.w3.org/TR/2001/REC-SVG-20010904/DTD/svg10.dtd">
<svg version="1.0" xmlns="http://www.w3.org/2000/svg"
 width="1064.000000pt" height="1064.000000pt" viewBox="0 0 1064.000000 1064.000000"
 preserveAspectRatio="xMidYMid meet">

<g transform="translate(0.000000,1064.000000) scale(0.100000,-0.100000)"
fill="#000000" stroke="none">
<path d="M5015 9329 c-1355 -112 -2528 -861 -3200 -2044 -552 -971 -665 -2166
-305 -3245 453 -1361 1613 -2386 3015 -2665 1101 -219 2213 16 3122 658 254
180 520 420 716 647 816 943 1149 2202 906 3425 -280 1412 -1303 2572 -2671
3029 -252 84 -590 157 -863 186 -137 15 -586 21 -720 9z m275 -394 l0 -35 -80
0 -80 0 0 -86 0 -86 83 7 82 7 1 -31 1 -31 -56 0 c-103 0 -101 2 -101 -108 l0
-95 85 7 85 7 0 -35 0 -36 -79 0 c-43 0 -105 -3 -138 -6 l-60 -7 -7 189 c-3
104 -9 225 -12 270 l-6 81 133 10 c74 5 137 10 142 11 4 1 7 -14 7 -33z m196
20 c6 -2 71 -87 144 -189 103 -143 136 -183 141 -169 4 10 9 74 13 143 4 69 9
141 12 161 5 33 7 35 35 31 34 -5 33 1 14 -133 -7 -57 -20 -173 -26 -257 -10
-124 -15 -152 -27 -147 -7 3 -21 5 -31 5 -11 0 -43 38 -86 101 -38 56 -100
145 -139 197 -69 94 -70 95 -77 66 -5 -16 -12 -97 -16 -181 -5 -84 -11 -154
-14 -157 -2 -2 -18 -2 -35 1 l-31 5 13 81 c12 78 26 209 39 379 l7 78 26 -6
c15 -3 32 -7 38 -9z m784 -110 c49 -7 49 -7 43 -38 -3 -18 -7 -33 -8 -35 -2
-2 -27 4 -56 12 -29 9 -56 16 -60 16 -8 0 -66 -234 -95 -383 -16 -81 -18 -87
-38 -81 -12 4 -36 10 -54 15 -19 4 -35 9 -38 11 -2 2 5 35 16 72 29 101 92
387 87 393 -3 2 -30 8 -61 12 -31 4 -58 10 -60 12 -2 2 -2 18 1 35 l5 31 134
-33 c74 -18 157 -35 184 -39z m-1463 52 c46 -17 103 -74 126 -127 29 -65 35
-177 12 -237 -23 -59 -79 -121 -130 -144 -32 -14 -242 -59 -277 -59 -4 0 -8
12 -8 28 0 34 -55 357 -75 437 -19 78 -19 75 13 76 15 0 68 9 117 19 104 21
176 23 222 7z m-452 -247 c64 -199 72 -243 56 -293 -17 -51 -88 -112 -152
-131 -101 -30 -177 -14 -224 49 -21 26 -155 371 -155 396 0 5 12 12 28 15 15
4 39 13 53 20 l26 13 48 -147 c88 -274 141 -330 254 -273 79 41 80 126 4 331
-28 74 -54 143 -58 152 -5 13 -2 20 11 24 11 3 26 9 34 14 8 4 16 7 17 6 1 -1
27 -80 58 -176z m2211 110 c23 -11 49 -29 58 -39 16 -18 16 -21 -6 -55 -27
-42 -38 -45 -38 -11 0 77 -124 100 -151 28 -13 -34 -3 -57 44 -110 92 -102
108 -160 64 -244 -26 -51 -89 -89 -147 -89 -50 0 -120 26 -153 56 l-27 25 25
42 c30 51 40 56 43 20 3 -41 34 -77 76 -87 77 -20 123 62 74 131 -13 17 -40
52 -61 77 -47 55 -57 107 -33 170 37 96 135 132 232 86z m-2768 -155 c7 -14
12 -28 12 -30 0 -2 -25 -15 -55 -29 l-56 -25 16 -38 c16 -37 97 -194 169 -324
l36 -66 -51 -27 c-29 -14 -53 -25 -55 -23 -2 2 -52 99 -110 216 l-105 212 -33
-19 c-18 -11 -44 -27 -58 -36 -26 -17 -26 -17 -42 15 -9 18 -15 33 -14 33 34
13 241 118 271 138 53 34 61 34 75 3z m3250 -64 c37 -21 91 -50 120 -65 l52
-26 -15 -31 c-10 -18 -20 -27 -28 -22 -7 4 -35 22 -64 40 -29 18 -56 33 -61
33 -8 0 -82 -125 -82 -139 0 -4 32 -22 70 -41 39 -19 70 -35 70 -37 0 -2 -6
-13 -12 -26 -7 -12 -14 -24 -15 -26 -1 -2 -34 15 -72 37 l-71 41 -34 -62 c-19
-34 -44 -86 -56 -114 -12 -29 -24 -53 -27 -53 -4 0 -91 48 -102 56 -2 2 33 67
77 146 44 79 101 185 126 236 25 50 49 92 52 92 3 0 36 -17 72 -39z m-3630
-178 c6 -20 10 -39 7 -41 -2 -2 -19 1 -39 8 -29 9 -40 8 -66 -5 -50 -26 -59
-74 -22 -117 13 -15 33 -18 126 -18 126 0 157 -12 195 -74 32 -51 37 -98 17
-151 -26 -68 -115 -135 -179 -135 -18 0 -26 10 -40 47 -9 25 -16 48 -14 50 2
2 18 -4 36 -13 92 -46 187 59 115 127 -24 22 -32 24 -120 21 -119 -3 -153 10
-194 74 -34 54 -39 104 -16 158 22 53 98 103 162 105 15 1 23 -8 32 -36z
m4062 -76 c25 -12 66 -42 91 -67 104 -104 102 -251 -7 -378 -78 -92 -223 -121
-332 -66 -63 31 -134 108 -150 162 -19 62 -15 131 12 188 77 166 234 231 386
161z m-4395 -269 c24 -29 27 -38 23 -95 l-4 -63 41 -8 c44 -9 58 5 34 34 -6 8
-10 16 -8 17 38 27 63 37 70 30 5 -5 18 -32 28 -59 l19 -49 71 -14 71 -14 -37
-33 c-31 -28 -44 -33 -70 -29 -30 5 -33 4 -43 -34 -19 -71 -119 -133 -186
-117 -15 4 -43 23 -61 42 -34 37 -48 82 -41 139 4 32 1 36 -29 46 -18 5 -44
24 -58 40 -64 77 4 199 112 199 34 0 46 -5 68 -32z m4828 -97 c98 -102 112
-135 81 -198 -28 -55 -78 -85 -134 -81 -25 3 -52 6 -60 9 -11 3 -23 -27 -50
-133 -19 -75 -37 -138 -40 -140 -10 -5 -90 69 -90 83 0 8 16 64 35 124 19 61
35 117 35 125 0 8 -38 -25 -85 -75 l-84 -90 -40 40 -41 40 188 191 c103 106
190 192 193 193 3 0 45 -39 92 -88z m-2362 23 c499 -83 918 -436 1087 -914 56
-159 76 -285 76 -470 -1 -185 -19 -299 -75 -457 -168 -479 -586 -833 -1084
-918 -127 -22 -328 -22 -460 0 -427 69 -818 359 -1014 751 -47 93 -102 255
-127 369 -26 124 -24 399 4 532 124 578 564 1007 1137 1107 111 20 340 20 456
0z m-2591 -360 c58 -48 105 -91 105 -94 0 -4 -17 -26 -38 -49 l-38 -42 -91 85
c-50 48 -94 86 -99 86 -10 0 -139 -148 -139 -160 0 -4 42 -43 93 -86 50 -43
92 -80 92 -84 0 -3 -17 -26 -38 -50 l-37 -44 -93 91 c-50 50 -139 130 -197
178 -58 48 -105 90 -105 94 0 10 62 81 71 81 3 0 40 -32 82 -71 l76 -71 34 38
c18 22 51 60 73 86 l40 47 -73 62 c-40 34 -77 65 -82 69 -4 5 9 29 29 54 l38
45 96 -89 c53 -49 143 -128 201 -176z m5466 -289 c39 -93 -55 -193 -170 -182
-46 4 -55 10 -102 60 l-52 56 -92 -69 -92 -69 -25 37 c-14 20 -29 42 -34 48
-6 8 27 36 103 87 62 42 162 112 223 155 l109 79 59 -83 c32 -46 65 -100 73
-119z m-6085 106 l23 -18 -37 -43 c-20 -24 -37 -47 -37 -51 0 -6 301 -207 355
-237 48 -27 48 -26 14 -80 l-31 -51 -72 51 c-39 28 -129 89 -199 136 -143 94
-135 94 -173 10 -19 -43 -21 -44 -52 -20 l-24 18 80 120 c43 65 87 134 96 152
19 37 26 39 57 13z m6213 -298 c15 -32 43 -83 62 -114 19 -31 34 -59 34 -62 0
-4 -12 -13 -27 -20 l-26 -14 -34 71 c-19 39 -36 72 -37 74 -6 5 -146 -73 -146
-82 0 -4 16 -34 35 -66 19 -32 35 -62 35 -67 0 -5 -11 -15 -25 -21 -24 -11
-26 -9 -60 58 -19 39 -38 70 -41 70 -6 0 -129 -67 -156 -85 -16 -11 -14 -18
26 -81 25 -38 44 -69 43 -69 -1 -1 -14 -9 -29 -18 l-28 -17 -31 62 c-17 35
-46 88 -65 119 -19 31 -34 59 -34 62 0 3 78 47 173 98 94 51 197 108 227 126
30 18 60 33 65 33 6 0 23 -26 39 -57z m-6145 -263 c54 -40 74 -86 69 -160 -10
-142 -120 -245 -232 -220 -31 7 -359 151 -374 164 -1 2 8 25 20 53 l23 49 164
-79 c223 -109 277 -113 331 -24 29 46 26 99 -7 137 -36 43 -75 67 -233 140
-74 34 -136 63 -137 64 -2 1 3 16 9 33 l12 31 156 -78 c86 -44 175 -93 199
-110z m600 -77 l13 -36 14 32 c16 39 34 32 34 -13 0 -18 10 -48 23 -67 23 -34
40 -45 157 -97 88 -39 133 -81 170 -158 17 -35 36 -64 45 -64 8 0 27 16 42 37
68 89 93 99 167 68 l37 -16 -32 -37 c-40 -45 -90 -153 -114 -246 -23 -85 -47
-122 -106 -162 -59 -39 -132 -61 -244 -74 -73 -8 -105 -17 -174 -51 -71 -35
-87 -39 -105 -30 -11 7 -34 19 -49 27 -16 9 -26 22 -23 29 3 9 -7 15 -30 19
-32 7 -50 35 -21 36 6 1 -1 8 -18 17 -35 18 -65 43 -65 53 0 4 19 11 43 14
l42 7 -35 29 -35 28 197 -1 c184 -2 198 -1 224 19 38 28 40 42 7 50 -56 14
-112 43 -152 79 -44 40 -51 55 -24 55 13 0 11 6 -10 28 -31 32 -35 52 -10 52
11 0 1 12 -25 31 -51 37 -54 54 -9 45 l32 -6 -27 23 c-27 22 -38 57 -18 57 6
0 -2 19 -16 42 -15 23 -29 63 -32 88 l-4 45 31 -35 c20 -22 28 -27 21 -13 -12
25 -13 63 -2 63 4 0 17 -7 28 -15 21 -14 21 -13 16 35 -6 62 17 70 37 13z
m4664 -33 c-2 -50 -2 -52 15 -36 38 33 52 14 31 -40 -10 -28 -10 -28 10 -9 12
10 21 24 21 32 0 7 5 13 10 13 25 0 0 -97 -36 -140 -20 -23 -22 -30 -10 -30
26 0 18 -26 -15 -54 -32 -27 -31 -33 3 -15 13 7 24 7 30 1 6 -6 -6 -22 -33
-46 -28 -24 -37 -36 -26 -36 25 0 21 -26 -7 -47 -22 -18 -22 -20 -8 -31 15
-10 12 -16 -25 -51 -37 -33 -89 -60 -166 -85 -29 -9 -4 -42 48 -62 39 -14 65
-16 170 -10 68 3 146 9 172 12 l48 7 -34 -37 -35 -36 43 0 c35 0 42 -3 39 -17
-2 -10 -23 -29 -47 -42 -28 -16 -39 -26 -31 -31 18 -11 5 -27 -30 -33 -20 -5
-28 -11 -24 -21 3 -9 -3 -17 -17 -21 -13 -4 -29 -14 -37 -21 -22 -22 -58 -16
-135 22 -59 30 -92 39 -180 50 -131 16 -238 61 -281 116 -15 20 -40 80 -57
134 -36 115 -67 180 -109 227 -16 19 -30 37 -30 40 0 3 22 13 49 22 62 20 89
9 137 -57 47 -65 69 -63 105 12 32 68 93 124 168 157 115 49 138 64 159 102
12 22 22 53 22 70 0 38 17 40 32 4 l11 -28 16 37 c22 51 36 42 34 -22z m1128
-117 c8 -21 6 -30 -8 -43 -72 -68 -360 -329 -382 -348 l-28 -22 -22 57 -22 57
33 25 c18 14 48 39 65 56 l33 30 -33 74 -32 75 -65 -3 c-36 -1 -72 -4 -82 -7
-11 -3 -21 5 -32 27 -9 18 -16 34 -16 35 0 2 123 5 273 7 149 1 280 3 290 5
11 1 21 -8 28 -25z m-6665 -196 c91 -46 154 -146 154 -243 0 -53 -37 -156 -71
-197 -116 -141 -381 -101 -465 70 -70 142 -8 326 130 389 52 24 189 14 252
-19z m6680 -131 c96 -44 154 -149 154 -276 l0 -70 -45 0 -45 0 20 33 c25 40
26 113 3 147 -53 77 -152 98 -278 59 -166 -51 -214 -197 -99 -305 l35 -34 -40
0 c-47 0 -68 24 -95 107 -39 119 -14 231 66 296 84 68 230 87 324 43z m-7013
-475 c130 -87 135 -89 216 -100 46 -6 102 -11 123 -11 35 0 38 -2 34 -22 -3
-13 -8 -40 -11 -62 -6 -35 -8 -38 -33 -32 -15 3 -63 11 -107 17 l-80 12 -166
-55 -165 -55 4 56 c2 31 7 59 11 62 3 4 56 21 116 39 61 18 114 35 118 37 15
9 -17 35 -112 91 -88 52 -96 59 -93 85 2 15 5 27 8 27 2 0 64 -40 137 -89z
m7207 -13 c0 -24 7 -83 15 -133 8 -49 13 -90 12 -91 -1 -1 -14 -4 -28 -7 -24
-6 -27 -3 -33 24 -3 17 -6 53 -6 80 0 26 -3 50 -7 52 -7 4 -164 -12 -170 -18
-3 -2 12 -97 23 -143 4 -21 2 -23 -28 -20 l-33 3 -7 73 c-3 40 -8 75 -10 78
-6 6 -182 -17 -191 -26 -4 -4 -1 -40 7 -80 17 -80 14 -90 -31 -90 -20 0 -23 5
-23 43 0 23 -7 83 -15 132 -8 50 -15 93 -15 96 0 4 33 10 73 14 113 10 402 47
406 51 2 2 17 4 33 4 26 0 28 -3 28 -42z m-5671 -433 c-76 -280 -110 -529
-111 -800 -1 -207 6 -304 33 -465 139 -826 686 -1579 1567 -2155 143 -93 417
-248 469 -265 28 -10 42 -6 150 48 147 74 352 198 503 304 736 517 1220 1165
1394 1868 54 218 67 321 73 570 8 317 -18 548 -93 835 -18 72 -36 141 -39 155
-10 42 139 -123 217 -240 88 -132 186 -332 233 -475 69 -210 111 -496 103
-703 -2 -69 0 -92 10 -92 42 0 266 151 398 269 218 193 406 444 562 751 l73
145 -6 -60 c-32 -296 -160 -757 -296 -1073 -369 -849 -947 -1470 -1744 -1872
-414 -209 -848 -345 -1360 -425 l-150 -23 -150 23 c-876 139 -1575 449 -2148
953 -473 417 -843 984 -1071 1641 -78 224 -164 588 -181 766 l-7 70 79 -155
c221 -434 503 -751 855 -961 46 -27 89 -49 96 -49 9 0 12 31 12 124 0 325 65
623 195 895 63 131 128 240 193 326 47 62 163 187 168 182 2 -1 -10 -52 -27
-112z m-753 -190 c93 -46 147 -136 147 -245 1 -169 -131 -291 -298 -278 -153
13 -255 126 -255 282 0 94 40 166 133 236 59 45 187 47 273 5z m5717 11 c47
-19 103 -71 134 -123 35 -60 43 -164 18 -230 -22 -57 -85 -128 -139 -155 -57
-29 -150 -35 -216 -13 -158 52 -232 240 -155 390 35 68 84 110 157 137 59 21
143 19 201 -6z m-1875 -502 c16 -10 22 -24 22 -49 0 -43 -16 -53 -44 -26 -29
28 -83 27 -144 -1 -61 -29 -221 -188 -294 -293 -30 -44 -90 -140 -131 -213
l-77 -133 93 6 c692 43 675 41 859 100 166 54 238 44 238 -32 0 -29 -8 -44
-40 -74 -51 -49 -115 -68 -248 -76 l-102 -6 -34 -38 c-46 -51 -121 -180 -265
-457 -147 -284 -258 -450 -391 -582 -99 -98 -166 -145 -270 -187 -198 -79
-425 -66 -494 30 -24 33 -33 133 -17 194 14 50 60 93 102 93 18 0 41 -11 61
-29 29 -26 33 -36 33 -78 0 -37 -6 -56 -28 -85 -55 -71 -19 -112 93 -105 90 6
176 50 260 136 63 63 222 301 329 491 171 303 289 467 395 554 26 21 45 40 43
42 -2 2 -48 -1 -103 -6 -54 -6 -211 -17 -347 -24 -136 -7 -249 -15 -251 -17
-9 -11 -169 -304 -201 -369 -65 -130 -138 -251 -161 -267 -31 -20 -125 -28
-152 -14 -32 17 -27 38 29 126 28 44 79 136 114 205 34 69 88 169 118 222 l55
97 -41 5 c-23 3 -68 8 -100 11 -51 6 -162 32 -208 50 -13 5 -31 -22 -83 -124
-96 -184 -177 -302 -276 -401 -90 -89 -158 -136 -259 -176 -183 -74 -404 -51
-454 46 -25 49 -19 179 10 218 43 58 122 50 149 -15 19 -45 12 -85 -22 -130
-74 -97 73 -139 218 -61 115 61 213 192 440 592 l79 139 -34 36 c-64 67 -76
119 -32 139 39 18 45 15 45 -19 0 -37 14 -65 39 -78 16 -9 26 1 76 77 32 48
106 135 163 194 58 60 103 110 101 112 -2 2 -60 16 -129 32 -154 34 -320 39
-412 11 -71 -21 -170 -96 -214 -159 -43 -63 -74 -159 -74 -229 0 -69 12 -104
48 -141 50 -53 131 -31 211 56 53 57 71 7 23 -60 -76 -104 -160 -157 -248
-158 -98 -1 -155 72 -162 204 -7 139 58 269 213 426 137 138 229 187 412 219
134 24 247 2 424 -79 l56 -26 93 41 c113 50 208 63 240 34 13 -12 20 -31 20
-56 0 -32 -6 -43 -42 -73 -53 -46 -120 -66 -221 -66 -103 0 -122 -12 -187
-119 -89 -147 -180 -314 -174 -320 3 -3 92 -7 198 -9 l192 -4 63 108 c172 301
345 480 580 598 91 46 176 54 229 20z"/>
<path d="M4621 8849 c-24 -5 -46 -11 -49 -13 -2 -3 12 -98 32 -211 20 -113 36
-210 36 -216 0 -15 76 -1 123 23 51 26 76 81 77 169 0 177 -85 274 -219 248z"/>
<path d="M7371 8239 c-20 -6 -60 -37 -96 -72 -96 -97 -133 -195 -102 -270 29
-68 113 -96 192 -63 75 32 172 157 189 245 20 107 -76 192 -183 160z"/>
<path d="M2972 7968 c-29 -29 1 -88 45 -88 15 0 22 8 26 28 10 51 -39 92 -71
60z"/>
<path d="M3066 7764 c-9 -23 15 -66 46 -83 25 -14 29 -14 55 5 17 13 28 31 28
44 0 20 -8 25 -55 36 -70 17 -67 17 -74 -2z"/>
<path d="M7790 7825 c-71 -72 -73 -75 -55 -90 27 -20 59 -28 84 -20 33 10 77
52 91 85 11 27 10 34 -11 65 -13 19 -26 35 -29 35 -3 0 -39 -34 -80 -75z"/>
<path d="M5000 7811 c-152 -41 -316 -120 -440 -212 -78 -57 -203 -177 -241
-230 l-20 -29 198 0 199 0 38 66 c59 100 163 229 268 332 53 50 88 92 79 91
-9 0 -45 -9 -81 -18z"/>
<path d="M5646 7744 c107 -105 194 -213 261 -324 l48 -80 198 0 199 0 -30 38
c-55 68 -186 189 -263 244 -124 88 -335 181 -464 204 l-40 7 91 -89z"/>
<path d="M5380 7581 l0 -241 221 0 c254 0 238 -11 157 108 -57 84 -255 288
-330 340 l-48 33 0 -240z"/>
<path d="M5159 7732 c-52 -43 -120 -107 -152 -143 -53 -59 -177 -229 -177
-243 0 -3 99 -6 220 -6 l220 0 0 235 c0 129 -4 235 -8 235 -5 0 -51 -35 -103
-78z"/>
<path d="M4185 7166 c-68 -122 -127 -314 -143 -464 l-8 -82 235 2 236 3 7 86
c11 153 63 365 123 502 7 16 -7 17 -203 17 l-211 0 -36 -64z"/>
<path d="M4755 7209 c-8 -25 -19 -14 259 -273 110 -102 202 -184 204 -181 2 2
-26 90 -62 195 -36 105 -66 194 -66 198 0 19 26 -30 90 -173 40 -88 76 -164
81 -169 5 -6 9 83 9 207 l0 217 -254 0 c-251 0 -255 0 -261 -21z"/>
<path d="M5380 7008 l0 -223 81 175 c44 96 85 179 90 184 5 6 -22 -84 -61
-198 l-69 -207 52 48 c218 199 427 397 427 404 0 39 -3 39 -266 39 l-254 0 0
-222z"/>
<path d="M6013 7218 c63 -152 127 -428 127 -544 l0 -54 236 0 236 0 -7 78
c-12 128 -59 292 -119 418 l-55 114 -211 0 c-165 0 -211 -3 -207 -12z"/>
<path d="M5702 6925 c-117 -135 -212 -247 -212 -249 0 -2 84 27 186 65 102 38
191 69 197 68 7 0 -66 -40 -162 -88 -145 -73 -170 -89 -150 -94 13 -4 124 -7
247 -7 l222 0 0 46 c0 106 -55 359 -103 472 l-14 33 -211 -246z"/>
<path d="M4706 7088 c-50 -142 -86 -317 -86 -420 l0 -48 214 0 c318 0 314 -4
105 101 -96 48 -169 88 -163 88 12 1 358 -124 376 -135 7 -4 8 -2 4 5 -14 22
-407 476 -416 479 -4 2 -19 -30 -34 -70z"/>
<path d="M4040 6471 c0 -113 49 -296 117 -443 l46 -98 213 0 212 0 -34 95
c-40 114 -72 265 -82 389 l-7 91 -232 3 -233 2 0 -39z"/>
<path d="M4623 6428 c7 -104 30 -217 68 -333 29 -89 44 -124 52 -115 2 3 90
106 197 230 106 124 200 233 209 243 12 14 -2 12 -70 -13 -46 -18 -133 -50
-192 -72 -60 -22 -111 -37 -114 -34 -3 2 71 43 163 90 l169 85 -244 0 -244 1
6 -82z"/>
<path d="M5708 6423 c96 -46 172 -87 169 -90 -4 -4 -199 64 -361 127 -27 10
-28 9 -15 -7 12 -15 388 -453 409 -476 9 -11 74 185 95 288 9 44 19 117 22
163 l6 82 -249 -1 -249 -1 173 -85z"/>
<path d="M6137 6415 c-8 -112 -47 -298 -87 -408 l-29 -77 212 2 211 3 23 40
c61 107 125 321 138 458 l7 77 -234 0 -235 0 -6 -95z"/>
<path d="M5491 6199 c98 -286 88 -278 -58 46 -25 55 -47 102 -49 104 -2 2 -4
-91 -4 -207 l0 -212 260 0 c212 0 260 3 260 14 0 11 -310 309 -442 424 l-36
33 69 -202z"/>
<path d="M4981 6175 c-127 -119 -231 -223 -231 -231 0 -12 43 -14 260 -14
l260 0 0 212 c0 116 -2 209 -4 207 -4 -4 -91 -191 -140 -304 -48 -107 -36 -51
29 145 36 106 63 195 61 197 -2 3 -108 -93 -235 -212z"/>
<path d="M4302 5788 c45 -64 174 -191 258 -254 128 -96 311 -181 471 -218 l58
-14 -97 96 c-108 108 -186 207 -263 336 l-52 86 -199 0 -199 0 23 -32z"/>
<path d="M4824 5795 c9 -14 24 -37 33 -52 60 -96 190 -245 284 -324 l46 -39
42 40 41 39 0 181 0 180 -231 0 -231 0 16 -25z"/>
<path d="M5380 5635 c0 -112 4 -185 10 -185 5 0 25 -15 44 -34 l34 -34 60 51
c105 90 220 227 286 340 l28 47 -231 0 -231 0 0 -185z"/>
<path d="M5927 5742 c-69 -119 -161 -237 -266 -343 l-96 -96 60 13 c161 37
329 116 468 220 80 60 212 190 257 254 l21 30 -199 0 -200 0 -45 -78z"/>
<path d="M8222 7312 l-83 -57 31 -27 c36 -33 63 -35 110 -7 45 27 69 58 70 87
0 30 -17 62 -33 62 -7 -1 -49 -27 -95 -58z"/>
<path d="M3600 6430 c0 -5 5 -10 10 -10 6 0 10 5 10 10 0 6 -4 10 -10 10 -5 0
-10 -4 -10 -10z"/>
<path d="M7030 6409 c0 -5 5 -7 10 -4 6 3 10 8 10 11 0 2 -4 4 -10 4 -5 0 -10
-5 -10 -11z"/>
<path d="M8543 6583 c-46 -2 -83 -8 -83 -12 0 -16 43 -111 50 -111 4 0 39 29
76 65 38 35 62 63 54 63 -8 -1 -52 -4 -97 -5z"/>
<path d="M1839 6321 c-83 -45 -92 -160 -17 -227 53 -49 175 -94 256 -94 101 0
178 86 153 171 -17 56 -54 94 -128 131 -54 26 -79 32 -146 35 -67 3 -89 0
-118 -16z"/>
</g>
</svg>
